<svg width="1200" height="630" viewBox="0 0 1200 630" xmlns="http://www.w3.org/2000/svg">
  <defs>
    <linearGradient id="bgGrad" x1="0%" y1="0%" x2="100%" y2="100%">
      <stop offset="0%" style="stop-color:#18181b"/>
      <stop offset="100%" style="stop-color:#000000"/>
    </linearGradient>
    <linearGradient id="greenGrad" x1="0%" y1="0%" x2="100%" y2="100%">
      <stop offset="0%" style="stop-color:#1DB954"/>
      <stop offset="100%" style="stop-color:#1ed760"/>
    </linearGradient>
    <linearGradient id="purpleGrad" x1="0%" y1="0%" x2="100%" y2="100%">
      <stop offset="0%" style="stop-color:#a855f7"/>
      <stop offset="100%" style="stop-color:#ec4899"/>
    </linearGradient>
    <filter id="glow" x="-50%" y="-50%" width="200%" height="200%">
      <feGaussianBlur stdDeviation="20" result="coloredBlur"/>
      <feMerge>
        <feMergeNode in="coloredBlur"/>
        <feMergeNode in="SourceGraphic"/>
      </feMerge>
    </filter>
  </defs>
  
  <!-- Background -->
  <rect width="1200" height="630" fill="url(#bgGrad)"/>
  
  <!-- Decorative blurs -->
  <ellipse cx="200" cy="150" rx="200" ry="200" fill="#1DB954" opacity="0.15" filter="url(#glow)"/>
  <ellipse cx="1000" cy="500" rx="250" ry="200" fill="#a855f7" opacity="0.1" filter="url(#glow)"/>
  
  <!-- Spotify Logo -->
  <g transform="translate(540, 80)">
    <circle cx="60" cy="60" r="60" fill="url(#greenGrad)"/>
    <path d="M60 20C33.5 20 12 41.5 12 68s17.9 48 48 48 48-21.5 48-48S86.6 20 60 20zm22.1 69.4c-.96 1.4-2.6 1.9-4.1 1c-11.3-6.9-25.4-8.4-42.2-4.6-1.7.5-3.1-.7-3.6-2.2-.5-1.7.7-3.1 2.2-3.6 18.2-4.1 34.1-2.4 47 5.3 1.7.7 1.9 2.6 1.2 4.1zm5.8-13.2c-1.2 1.7-3.4 2.4-5 1.2-12.9-7.9-32.6-10.3-47.8-5.5-1.9.5-4.1-.5-4.6-2.4-.5-1.9.5-4.1 2.4-4.6C51 59.1 72.4 61.8 87 71c1.4.7 2.2 3.1 1 4.8zm.5-13.4c-15.5-9.2-41-10-55.8-5.5-2.4.7-4.8-.7-5.5-3-.7-2.4.7-4.8 3-5.5 17-5.1 45.2-4.1 63 6.5 2.2 1.2 2.9 4.1 1.7 6.2-1.2 1.7-4.1 2.4-6.2 1.2z" fill="white" transform="translate(-12, -20) scale(1)"/>
  </g>
  
  <!-- Main Title -->
  <text x="600" y="280" text-anchor="middle" font-family="-apple-system, BlinkMacSystemFont, 'Segoe UI', Roboto, sans-serif" font-size="64" font-weight="bold" fill="white">Podcast Notes</text>
  
  <!-- Subtitle -->
  <text x="600" y="340" text-anchor="middle" font-family="-apple-system, BlinkMacSystemFont, 'Segoe UI', Roboto, sans-serif" font-size="28" fill="#a1a1aa">Take notes while you listen</text>
  
  <!-- Feature pills -->
  <g transform="translate(600, 400)">
    <rect x="-280" y="0" width="120" height="44" rx="22" fill="#27272a" stroke="#3f3f46" stroke-width="1"/>
    <text x="-220" y="28" text-anchor="middle" font-family="-apple-system, BlinkMacSystemFont, sans-serif" font-size="16" fill="#d4d4d8">= Bookmarks</text>
    
    <rect x="-140" y="0" width="100" height="44" rx="22" fill="#27272a" stroke="#3f3f46" stroke-width="1"/>
    <text x="-90" y="28" text-anchor="middle" font-family="-apple-system, BlinkMacSystemFont, sans-serif" font-size="16" fill="#d4d4d8">=ð Notes</text>
    
    <rect x="-20" y="0" width="140" height="44" rx="22" fill="#27272a" stroke="#3f3f46" stroke-width="1"/>
    <text x="50" y="28" text-anchor="middle" font-family="-apple-system, BlinkMacSystemFont, sans-serif" font-size="16" fill="#d4d4d8">>ý Knowledge</text>
    
    <rect x="140" y="0" width="100" height="44" rx="22" fill="#27272a" stroke="#3f3f46" stroke-width="1"/>
    <text x="190" y="28" text-anchor="middle" font-family="-apple-system, BlinkMacSystemFont, sans-serif" font-size="16" fill="#d4d4d8">=‰ Export</text>
  </g>
  
  <!-- CTA Badge -->
  <g transform="translate(600, 490)">
    <rect x="-100" y="0" width="200" height="50" rx="25" fill="url(#greenGrad)"/>
    <text x="0" y="32" text-anchor="middle" font-family="-apple-system, BlinkMacSystemFont, sans-serif" font-size="18" font-weight="bold" fill="white">Try it out í</text>
  </g>
  
  <!-- Creator credit -->
  <text x="600" y="590" text-anchor="middle" font-family="-apple-system, BlinkMacSystemFont, 'Segoe UI', Roboto, sans-serif" font-size="18" fill="#71717a">Interactive demo by @sergiopesch</text>
</svg>
